# xmcd
#
# Track frame offsets:
#	150
#	8109
#	21798
#	33827
#	43549
#	56776
#	65989
#	73800
#	84600
#	98646
#	111871
#	122326
#	134371
#	147560
#	157520
#	166986
#	181133
#	189050
#
# Disc length: 2730 seconds
#
# Revision: 0
# Processed by: cddbd v1.5.2PL0 Copyright (c) Steve Scherf et al.
# Submitted via: dBpowerAMP V4.0
#
DISCID=ea0aa812
DTITLE=Los Pikadientes de caborca - Vamonos Pa'l Rio
DYEAR=2008
DGENRE=Dance
TTITLE0=La Cumbia Del Rio [version original]
TTITLE1=Vida De Perro
TTITLE2=La Cumbia De Caborca.
TTITLE3=Chapilin.
TTITLE4=Que Se Mueran Los Feos.
TTITLE5=El Carinoso.
TTITLE6=El Perro.
TTITLE7=La Machaka.
TTITLE8=I Love You.
TTITLE9=Agujetas De Color De Rosa.
TTITLE10=Mikaela
TTITLE11=El Baile De La Botella.
TTITLE12=Fuiste A Acapulco.
TTITLE13=Macarina Pom Pom.
TTITLE14=La Cumbia De Caborca [version radio]
TTITLE15=La Cumbia Del Rio [version balada]
TTITLE16=La Cumbia Del Rio [version radio]
TTITLE17=La Cumbia Del Rio [version mix]
EXTD=
EXTT0=
EXTT1=
EXTT2=
EXTT3=
EXTT4=
EXTT5=
EXTT6=
EXTT7=
EXTT8=
EXTT9=
EXTT10=
EXTT11=
EXTT12=
EXTT13=
EXTT14=
EXTT15=
EXTT16=
EXTT17=
PLAYORDER=
